G75*
%MOIN*%
%OFA0B0*%
%FSLAX25Y25*%
%IPPOS*%
%LPD*%
%AMOC8*
5,1,8,0,0,1.08239X$1,22.5*
%
%ADD10C,0.00400*%
%ADD11R,0.10000X0.20000*%
%ADD12C,0.00000*%
D10*
X0013750Y0001250D02*
X0001250Y0013750D01*
X0001250Y0139750D01*
X0013750Y0152250D01*
X0093750Y0152250D01*
X0106250Y0139750D01*
X0106250Y0013750D01*
X0093750Y0001250D01*
X0013750Y0001250D01*
D11*
X0008750Y0076750D03*
X0098750Y0076750D03*
D12*
X0058300Y0107750D02*
X0058302Y0107838D01*
X0058308Y0107926D01*
X0058318Y0108014D01*
X0058332Y0108101D01*
X0058350Y0108187D01*
X0058371Y0108272D01*
X0058397Y0108357D01*
X0058426Y0108440D01*
X0058459Y0108522D01*
X0058496Y0108602D01*
X0058536Y0108680D01*
X0058580Y0108757D01*
X0058627Y0108831D01*
X0058678Y0108903D01*
X0058731Y0108973D01*
X0058788Y0109041D01*
X0058848Y0109105D01*
X0058911Y0109167D01*
X0058976Y0109226D01*
X0059044Y0109282D01*
X0059115Y0109335D01*
X0059187Y0109385D01*
X0059262Y0109431D01*
X0059339Y0109474D01*
X0059418Y0109514D01*
X0059499Y0109549D01*
X0059581Y0109582D01*
X0059664Y0109610D01*
X0059749Y0109635D01*
X0059835Y0109655D01*
X0059921Y0109672D01*
X0060008Y0109685D01*
X0060096Y0109694D01*
X0060184Y0109699D01*
X0060272Y0109700D01*
X0060360Y0109697D01*
X0060448Y0109690D01*
X0060535Y0109679D01*
X0060622Y0109664D01*
X0060708Y0109645D01*
X0060794Y0109623D01*
X0060878Y0109596D01*
X0060960Y0109566D01*
X0061042Y0109532D01*
X0061122Y0109494D01*
X0061199Y0109453D01*
X0061275Y0109409D01*
X0061349Y0109361D01*
X0061421Y0109309D01*
X0061490Y0109255D01*
X0061557Y0109197D01*
X0061621Y0109137D01*
X0061682Y0109073D01*
X0061741Y0109007D01*
X0061796Y0108939D01*
X0061848Y0108867D01*
X0061897Y0108794D01*
X0061942Y0108719D01*
X0061984Y0108641D01*
X0062023Y0108562D01*
X0062058Y0108481D01*
X0062089Y0108398D01*
X0062116Y0108315D01*
X0062140Y0108230D01*
X0062160Y0108144D01*
X0062176Y0108057D01*
X0062188Y0107970D01*
X0062196Y0107882D01*
X0062200Y0107794D01*
X0062200Y0107706D01*
X0062196Y0107618D01*
X0062188Y0107530D01*
X0062176Y0107443D01*
X0062160Y0107356D01*
X0062140Y0107270D01*
X0062116Y0107185D01*
X0062089Y0107102D01*
X0062058Y0107019D01*
X0062023Y0106938D01*
X0061984Y0106859D01*
X0061942Y0106781D01*
X0061897Y0106706D01*
X0061848Y0106633D01*
X0061796Y0106561D01*
X0061741Y0106493D01*
X0061682Y0106427D01*
X0061621Y0106363D01*
X0061557Y0106303D01*
X0061490Y0106245D01*
X0061421Y0106191D01*
X0061349Y0106139D01*
X0061275Y0106091D01*
X0061199Y0106047D01*
X0061122Y0106006D01*
X0061042Y0105968D01*
X0060960Y0105934D01*
X0060878Y0105904D01*
X0060794Y0105877D01*
X0060708Y0105855D01*
X0060622Y0105836D01*
X0060535Y0105821D01*
X0060448Y0105810D01*
X0060360Y0105803D01*
X0060272Y0105800D01*
X0060184Y0105801D01*
X0060096Y0105806D01*
X0060008Y0105815D01*
X0059921Y0105828D01*
X0059835Y0105845D01*
X0059749Y0105865D01*
X0059664Y0105890D01*
X0059581Y0105918D01*
X0059499Y0105951D01*
X0059418Y0105986D01*
X0059339Y0106026D01*
X0059262Y0106069D01*
X0059187Y0106115D01*
X0059115Y0106165D01*
X0059044Y0106218D01*
X0058976Y0106274D01*
X0058911Y0106333D01*
X0058848Y0106395D01*
X0058788Y0106459D01*
X0058731Y0106527D01*
X0058678Y0106597D01*
X0058627Y0106669D01*
X0058580Y0106743D01*
X0058536Y0106820D01*
X0058496Y0106898D01*
X0058459Y0106978D01*
X0058426Y0107060D01*
X0058397Y0107143D01*
X0058371Y0107228D01*
X0058350Y0107313D01*
X0058332Y0107399D01*
X0058318Y0107486D01*
X0058308Y0107574D01*
X0058302Y0107662D01*
X0058300Y0107750D01*
X0038300Y0103750D02*
X0038302Y0103838D01*
X0038308Y0103926D01*
X0038318Y0104014D01*
X0038332Y0104101D01*
X0038350Y0104187D01*
X0038371Y0104272D01*
X0038397Y0104357D01*
X0038426Y0104440D01*
X0038459Y0104522D01*
X0038496Y0104602D01*
X0038536Y0104680D01*
X0038580Y0104757D01*
X0038627Y0104831D01*
X0038678Y0104903D01*
X0038731Y0104973D01*
X0038788Y0105041D01*
X0038848Y0105105D01*
X0038911Y0105167D01*
X0038976Y0105226D01*
X0039044Y0105282D01*
X0039115Y0105335D01*
X0039187Y0105385D01*
X0039262Y0105431D01*
X0039339Y0105474D01*
X0039418Y0105514D01*
X0039499Y0105549D01*
X0039581Y0105582D01*
X0039664Y0105610D01*
X0039749Y0105635D01*
X0039835Y0105655D01*
X0039921Y0105672D01*
X0040008Y0105685D01*
X0040096Y0105694D01*
X0040184Y0105699D01*
X0040272Y0105700D01*
X0040360Y0105697D01*
X0040448Y0105690D01*
X0040535Y0105679D01*
X0040622Y0105664D01*
X0040708Y0105645D01*
X0040794Y0105623D01*
X0040878Y0105596D01*
X0040960Y0105566D01*
X0041042Y0105532D01*
X0041122Y0105494D01*
X0041199Y0105453D01*
X0041275Y0105409D01*
X0041349Y0105361D01*
X0041421Y0105309D01*
X0041490Y0105255D01*
X0041557Y0105197D01*
X0041621Y0105137D01*
X0041682Y0105073D01*
X0041741Y0105007D01*
X0041796Y0104939D01*
X0041848Y0104867D01*
X0041897Y0104794D01*
X0041942Y0104719D01*
X0041984Y0104641D01*
X0042023Y0104562D01*
X0042058Y0104481D01*
X0042089Y0104398D01*
X0042116Y0104315D01*
X0042140Y0104230D01*
X0042160Y0104144D01*
X0042176Y0104057D01*
X0042188Y0103970D01*
X0042196Y0103882D01*
X0042200Y0103794D01*
X0042200Y0103706D01*
X0042196Y0103618D01*
X0042188Y0103530D01*
X0042176Y0103443D01*
X0042160Y0103356D01*
X0042140Y0103270D01*
X0042116Y0103185D01*
X0042089Y0103102D01*
X0042058Y0103019D01*
X0042023Y0102938D01*
X0041984Y0102859D01*
X0041942Y0102781D01*
X0041897Y0102706D01*
X0041848Y0102633D01*
X0041796Y0102561D01*
X0041741Y0102493D01*
X0041682Y0102427D01*
X0041621Y0102363D01*
X0041557Y0102303D01*
X0041490Y0102245D01*
X0041421Y0102191D01*
X0041349Y0102139D01*
X0041275Y0102091D01*
X0041199Y0102047D01*
X0041122Y0102006D01*
X0041042Y0101968D01*
X0040960Y0101934D01*
X0040878Y0101904D01*
X0040794Y0101877D01*
X0040708Y0101855D01*
X0040622Y0101836D01*
X0040535Y0101821D01*
X0040448Y0101810D01*
X0040360Y0101803D01*
X0040272Y0101800D01*
X0040184Y0101801D01*
X0040096Y0101806D01*
X0040008Y0101815D01*
X0039921Y0101828D01*
X0039835Y0101845D01*
X0039749Y0101865D01*
X0039664Y0101890D01*
X0039581Y0101918D01*
X0039499Y0101951D01*
X0039418Y0101986D01*
X0039339Y0102026D01*
X0039262Y0102069D01*
X0039187Y0102115D01*
X0039115Y0102165D01*
X0039044Y0102218D01*
X0038976Y0102274D01*
X0038911Y0102333D01*
X0038848Y0102395D01*
X0038788Y0102459D01*
X0038731Y0102527D01*
X0038678Y0102597D01*
X0038627Y0102669D01*
X0038580Y0102743D01*
X0038536Y0102820D01*
X0038496Y0102898D01*
X0038459Y0102978D01*
X0038426Y0103060D01*
X0038397Y0103143D01*
X0038371Y0103228D01*
X0038350Y0103313D01*
X0038332Y0103399D01*
X0038318Y0103486D01*
X0038308Y0103574D01*
X0038302Y0103662D01*
X0038300Y0103750D01*
X0038300Y0111750D02*
X0038302Y0111838D01*
X0038308Y0111926D01*
X0038318Y0112014D01*
X0038332Y0112101D01*
X0038350Y0112187D01*
X0038371Y0112272D01*
X0038397Y0112357D01*
X0038426Y0112440D01*
X0038459Y0112522D01*
X0038496Y0112602D01*
X0038536Y0112680D01*
X0038580Y0112757D01*
X0038627Y0112831D01*
X0038678Y0112903D01*
X0038731Y0112973D01*
X0038788Y0113041D01*
X0038848Y0113105D01*
X0038911Y0113167D01*
X0038976Y0113226D01*
X0039044Y0113282D01*
X0039115Y0113335D01*
X0039187Y0113385D01*
X0039262Y0113431D01*
X0039339Y0113474D01*
X0039418Y0113514D01*
X0039499Y0113549D01*
X0039581Y0113582D01*
X0039664Y0113610D01*
X0039749Y0113635D01*
X0039835Y0113655D01*
X0039921Y0113672D01*
X0040008Y0113685D01*
X0040096Y0113694D01*
X0040184Y0113699D01*
X0040272Y0113700D01*
X0040360Y0113697D01*
X0040448Y0113690D01*
X0040535Y0113679D01*
X0040622Y0113664D01*
X0040708Y0113645D01*
X0040794Y0113623D01*
X0040878Y0113596D01*
X0040960Y0113566D01*
X0041042Y0113532D01*
X0041122Y0113494D01*
X0041199Y0113453D01*
X0041275Y0113409D01*
X0041349Y0113361D01*
X0041421Y0113309D01*
X0041490Y0113255D01*
X0041557Y0113197D01*
X0041621Y0113137D01*
X0041682Y0113073D01*
X0041741Y0113007D01*
X0041796Y0112939D01*
X0041848Y0112867D01*
X0041897Y0112794D01*
X0041942Y0112719D01*
X0041984Y0112641D01*
X0042023Y0112562D01*
X0042058Y0112481D01*
X0042089Y0112398D01*
X0042116Y0112315D01*
X0042140Y0112230D01*
X0042160Y0112144D01*
X0042176Y0112057D01*
X0042188Y0111970D01*
X0042196Y0111882D01*
X0042200Y0111794D01*
X0042200Y0111706D01*
X0042196Y0111618D01*
X0042188Y0111530D01*
X0042176Y0111443D01*
X0042160Y0111356D01*
X0042140Y0111270D01*
X0042116Y0111185D01*
X0042089Y0111102D01*
X0042058Y0111019D01*
X0042023Y0110938D01*
X0041984Y0110859D01*
X0041942Y0110781D01*
X0041897Y0110706D01*
X0041848Y0110633D01*
X0041796Y0110561D01*
X0041741Y0110493D01*
X0041682Y0110427D01*
X0041621Y0110363D01*
X0041557Y0110303D01*
X0041490Y0110245D01*
X0041421Y0110191D01*
X0041349Y0110139D01*
X0041275Y0110091D01*
X0041199Y0110047D01*
X0041122Y0110006D01*
X0041042Y0109968D01*
X0040960Y0109934D01*
X0040878Y0109904D01*
X0040794Y0109877D01*
X0040708Y0109855D01*
X0040622Y0109836D01*
X0040535Y0109821D01*
X0040448Y0109810D01*
X0040360Y0109803D01*
X0040272Y0109800D01*
X0040184Y0109801D01*
X0040096Y0109806D01*
X0040008Y0109815D01*
X0039921Y0109828D01*
X0039835Y0109845D01*
X0039749Y0109865D01*
X0039664Y0109890D01*
X0039581Y0109918D01*
X0039499Y0109951D01*
X0039418Y0109986D01*
X0039339Y0110026D01*
X0039262Y0110069D01*
X0039187Y0110115D01*
X0039115Y0110165D01*
X0039044Y0110218D01*
X0038976Y0110274D01*
X0038911Y0110333D01*
X0038848Y0110395D01*
X0038788Y0110459D01*
X0038731Y0110527D01*
X0038678Y0110597D01*
X0038627Y0110669D01*
X0038580Y0110743D01*
X0038536Y0110820D01*
X0038496Y0110898D01*
X0038459Y0110978D01*
X0038426Y0111060D01*
X0038397Y0111143D01*
X0038371Y0111228D01*
X0038350Y0111313D01*
X0038332Y0111399D01*
X0038318Y0111486D01*
X0038308Y0111574D01*
X0038302Y0111662D01*
X0038300Y0111750D01*
M02*
