G75*
%MOIN*%
%OFA0B0*%
%FSLAX25Y25*%
%IPPOS*%
%LPD*%
%AMOC8*
5,1,8,0,0,1.08239X$1,22.5*
%
%ADD10C,0.00400*%
%ADD11C,0.35000*%
%ADD12R,0.10000X0.20000*%
%ADD13C,0.00000*%
%ADD14C,0.00500*%
%ADD15C,0.03169*%
D10*
X0013750Y0001250D02*
X0001250Y0013750D01*
X0001250Y0139750D01*
X0013750Y0152250D01*
X0093750Y0152250D01*
X0106250Y0139750D01*
X0106250Y0013750D01*
X0093750Y0001250D01*
X0013750Y0001250D01*
D11*
X0053750Y0076750D03*
D12*
X0098750Y0076750D03*
X0008750Y0076750D03*
D13*
X0038300Y0103750D02*
X0038302Y0103838D01*
X0038308Y0103926D01*
X0038318Y0104014D01*
X0038332Y0104101D01*
X0038350Y0104187D01*
X0038371Y0104272D01*
X0038397Y0104357D01*
X0038426Y0104440D01*
X0038459Y0104522D01*
X0038496Y0104602D01*
X0038536Y0104680D01*
X0038580Y0104757D01*
X0038627Y0104831D01*
X0038678Y0104903D01*
X0038731Y0104973D01*
X0038788Y0105041D01*
X0038848Y0105105D01*
X0038911Y0105167D01*
X0038976Y0105226D01*
X0039044Y0105282D01*
X0039115Y0105335D01*
X0039187Y0105385D01*
X0039262Y0105431D01*
X0039339Y0105474D01*
X0039418Y0105514D01*
X0039499Y0105549D01*
X0039581Y0105582D01*
X0039664Y0105610D01*
X0039749Y0105635D01*
X0039835Y0105655D01*
X0039921Y0105672D01*
X0040008Y0105685D01*
X0040096Y0105694D01*
X0040184Y0105699D01*
X0040272Y0105700D01*
X0040360Y0105697D01*
X0040448Y0105690D01*
X0040535Y0105679D01*
X0040622Y0105664D01*
X0040708Y0105645D01*
X0040794Y0105623D01*
X0040878Y0105596D01*
X0040960Y0105566D01*
X0041042Y0105532D01*
X0041122Y0105494D01*
X0041199Y0105453D01*
X0041275Y0105409D01*
X0041349Y0105361D01*
X0041421Y0105309D01*
X0041490Y0105255D01*
X0041557Y0105197D01*
X0041621Y0105137D01*
X0041682Y0105073D01*
X0041741Y0105007D01*
X0041796Y0104939D01*
X0041848Y0104867D01*
X0041897Y0104794D01*
X0041942Y0104719D01*
X0041984Y0104641D01*
X0042023Y0104562D01*
X0042058Y0104481D01*
X0042089Y0104398D01*
X0042116Y0104315D01*
X0042140Y0104230D01*
X0042160Y0104144D01*
X0042176Y0104057D01*
X0042188Y0103970D01*
X0042196Y0103882D01*
X0042200Y0103794D01*
X0042200Y0103706D01*
X0042196Y0103618D01*
X0042188Y0103530D01*
X0042176Y0103443D01*
X0042160Y0103356D01*
X0042140Y0103270D01*
X0042116Y0103185D01*
X0042089Y0103102D01*
X0042058Y0103019D01*
X0042023Y0102938D01*
X0041984Y0102859D01*
X0041942Y0102781D01*
X0041897Y0102706D01*
X0041848Y0102633D01*
X0041796Y0102561D01*
X0041741Y0102493D01*
X0041682Y0102427D01*
X0041621Y0102363D01*
X0041557Y0102303D01*
X0041490Y0102245D01*
X0041421Y0102191D01*
X0041349Y0102139D01*
X0041275Y0102091D01*
X0041199Y0102047D01*
X0041122Y0102006D01*
X0041042Y0101968D01*
X0040960Y0101934D01*
X0040878Y0101904D01*
X0040794Y0101877D01*
X0040708Y0101855D01*
X0040622Y0101836D01*
X0040535Y0101821D01*
X0040448Y0101810D01*
X0040360Y0101803D01*
X0040272Y0101800D01*
X0040184Y0101801D01*
X0040096Y0101806D01*
X0040008Y0101815D01*
X0039921Y0101828D01*
X0039835Y0101845D01*
X0039749Y0101865D01*
X0039664Y0101890D01*
X0039581Y0101918D01*
X0039499Y0101951D01*
X0039418Y0101986D01*
X0039339Y0102026D01*
X0039262Y0102069D01*
X0039187Y0102115D01*
X0039115Y0102165D01*
X0039044Y0102218D01*
X0038976Y0102274D01*
X0038911Y0102333D01*
X0038848Y0102395D01*
X0038788Y0102459D01*
X0038731Y0102527D01*
X0038678Y0102597D01*
X0038627Y0102669D01*
X0038580Y0102743D01*
X0038536Y0102820D01*
X0038496Y0102898D01*
X0038459Y0102978D01*
X0038426Y0103060D01*
X0038397Y0103143D01*
X0038371Y0103228D01*
X0038350Y0103313D01*
X0038332Y0103399D01*
X0038318Y0103486D01*
X0038308Y0103574D01*
X0038302Y0103662D01*
X0038300Y0103750D01*
X0038300Y0111750D02*
X0038302Y0111838D01*
X0038308Y0111926D01*
X0038318Y0112014D01*
X0038332Y0112101D01*
X0038350Y0112187D01*
X0038371Y0112272D01*
X0038397Y0112357D01*
X0038426Y0112440D01*
X0038459Y0112522D01*
X0038496Y0112602D01*
X0038536Y0112680D01*
X0038580Y0112757D01*
X0038627Y0112831D01*
X0038678Y0112903D01*
X0038731Y0112973D01*
X0038788Y0113041D01*
X0038848Y0113105D01*
X0038911Y0113167D01*
X0038976Y0113226D01*
X0039044Y0113282D01*
X0039115Y0113335D01*
X0039187Y0113385D01*
X0039262Y0113431D01*
X0039339Y0113474D01*
X0039418Y0113514D01*
X0039499Y0113549D01*
X0039581Y0113582D01*
X0039664Y0113610D01*
X0039749Y0113635D01*
X0039835Y0113655D01*
X0039921Y0113672D01*
X0040008Y0113685D01*
X0040096Y0113694D01*
X0040184Y0113699D01*
X0040272Y0113700D01*
X0040360Y0113697D01*
X0040448Y0113690D01*
X0040535Y0113679D01*
X0040622Y0113664D01*
X0040708Y0113645D01*
X0040794Y0113623D01*
X0040878Y0113596D01*
X0040960Y0113566D01*
X0041042Y0113532D01*
X0041122Y0113494D01*
X0041199Y0113453D01*
X0041275Y0113409D01*
X0041349Y0113361D01*
X0041421Y0113309D01*
X0041490Y0113255D01*
X0041557Y0113197D01*
X0041621Y0113137D01*
X0041682Y0113073D01*
X0041741Y0113007D01*
X0041796Y0112939D01*
X0041848Y0112867D01*
X0041897Y0112794D01*
X0041942Y0112719D01*
X0041984Y0112641D01*
X0042023Y0112562D01*
X0042058Y0112481D01*
X0042089Y0112398D01*
X0042116Y0112315D01*
X0042140Y0112230D01*
X0042160Y0112144D01*
X0042176Y0112057D01*
X0042188Y0111970D01*
X0042196Y0111882D01*
X0042200Y0111794D01*
X0042200Y0111706D01*
X0042196Y0111618D01*
X0042188Y0111530D01*
X0042176Y0111443D01*
X0042160Y0111356D01*
X0042140Y0111270D01*
X0042116Y0111185D01*
X0042089Y0111102D01*
X0042058Y0111019D01*
X0042023Y0110938D01*
X0041984Y0110859D01*
X0041942Y0110781D01*
X0041897Y0110706D01*
X0041848Y0110633D01*
X0041796Y0110561D01*
X0041741Y0110493D01*
X0041682Y0110427D01*
X0041621Y0110363D01*
X0041557Y0110303D01*
X0041490Y0110245D01*
X0041421Y0110191D01*
X0041349Y0110139D01*
X0041275Y0110091D01*
X0041199Y0110047D01*
X0041122Y0110006D01*
X0041042Y0109968D01*
X0040960Y0109934D01*
X0040878Y0109904D01*
X0040794Y0109877D01*
X0040708Y0109855D01*
X0040622Y0109836D01*
X0040535Y0109821D01*
X0040448Y0109810D01*
X0040360Y0109803D01*
X0040272Y0109800D01*
X0040184Y0109801D01*
X0040096Y0109806D01*
X0040008Y0109815D01*
X0039921Y0109828D01*
X0039835Y0109845D01*
X0039749Y0109865D01*
X0039664Y0109890D01*
X0039581Y0109918D01*
X0039499Y0109951D01*
X0039418Y0109986D01*
X0039339Y0110026D01*
X0039262Y0110069D01*
X0039187Y0110115D01*
X0039115Y0110165D01*
X0039044Y0110218D01*
X0038976Y0110274D01*
X0038911Y0110333D01*
X0038848Y0110395D01*
X0038788Y0110459D01*
X0038731Y0110527D01*
X0038678Y0110597D01*
X0038627Y0110669D01*
X0038580Y0110743D01*
X0038536Y0110820D01*
X0038496Y0110898D01*
X0038459Y0110978D01*
X0038426Y0111060D01*
X0038397Y0111143D01*
X0038371Y0111228D01*
X0038350Y0111313D01*
X0038332Y0111399D01*
X0038318Y0111486D01*
X0038308Y0111574D01*
X0038302Y0111662D01*
X0038300Y0111750D01*
X0058300Y0107750D02*
X0058302Y0107838D01*
X0058308Y0107926D01*
X0058318Y0108014D01*
X0058332Y0108101D01*
X0058350Y0108187D01*
X0058371Y0108272D01*
X0058397Y0108357D01*
X0058426Y0108440D01*
X0058459Y0108522D01*
X0058496Y0108602D01*
X0058536Y0108680D01*
X0058580Y0108757D01*
X0058627Y0108831D01*
X0058678Y0108903D01*
X0058731Y0108973D01*
X0058788Y0109041D01*
X0058848Y0109105D01*
X0058911Y0109167D01*
X0058976Y0109226D01*
X0059044Y0109282D01*
X0059115Y0109335D01*
X0059187Y0109385D01*
X0059262Y0109431D01*
X0059339Y0109474D01*
X0059418Y0109514D01*
X0059499Y0109549D01*
X0059581Y0109582D01*
X0059664Y0109610D01*
X0059749Y0109635D01*
X0059835Y0109655D01*
X0059921Y0109672D01*
X0060008Y0109685D01*
X0060096Y0109694D01*
X0060184Y0109699D01*
X0060272Y0109700D01*
X0060360Y0109697D01*
X0060448Y0109690D01*
X0060535Y0109679D01*
X0060622Y0109664D01*
X0060708Y0109645D01*
X0060794Y0109623D01*
X0060878Y0109596D01*
X0060960Y0109566D01*
X0061042Y0109532D01*
X0061122Y0109494D01*
X0061199Y0109453D01*
X0061275Y0109409D01*
X0061349Y0109361D01*
X0061421Y0109309D01*
X0061490Y0109255D01*
X0061557Y0109197D01*
X0061621Y0109137D01*
X0061682Y0109073D01*
X0061741Y0109007D01*
X0061796Y0108939D01*
X0061848Y0108867D01*
X0061897Y0108794D01*
X0061942Y0108719D01*
X0061984Y0108641D01*
X0062023Y0108562D01*
X0062058Y0108481D01*
X0062089Y0108398D01*
X0062116Y0108315D01*
X0062140Y0108230D01*
X0062160Y0108144D01*
X0062176Y0108057D01*
X0062188Y0107970D01*
X0062196Y0107882D01*
X0062200Y0107794D01*
X0062200Y0107706D01*
X0062196Y0107618D01*
X0062188Y0107530D01*
X0062176Y0107443D01*
X0062160Y0107356D01*
X0062140Y0107270D01*
X0062116Y0107185D01*
X0062089Y0107102D01*
X0062058Y0107019D01*
X0062023Y0106938D01*
X0061984Y0106859D01*
X0061942Y0106781D01*
X0061897Y0106706D01*
X0061848Y0106633D01*
X0061796Y0106561D01*
X0061741Y0106493D01*
X0061682Y0106427D01*
X0061621Y0106363D01*
X0061557Y0106303D01*
X0061490Y0106245D01*
X0061421Y0106191D01*
X0061349Y0106139D01*
X0061275Y0106091D01*
X0061199Y0106047D01*
X0061122Y0106006D01*
X0061042Y0105968D01*
X0060960Y0105934D01*
X0060878Y0105904D01*
X0060794Y0105877D01*
X0060708Y0105855D01*
X0060622Y0105836D01*
X0060535Y0105821D01*
X0060448Y0105810D01*
X0060360Y0105803D01*
X0060272Y0105800D01*
X0060184Y0105801D01*
X0060096Y0105806D01*
X0060008Y0105815D01*
X0059921Y0105828D01*
X0059835Y0105845D01*
X0059749Y0105865D01*
X0059664Y0105890D01*
X0059581Y0105918D01*
X0059499Y0105951D01*
X0059418Y0105986D01*
X0059339Y0106026D01*
X0059262Y0106069D01*
X0059187Y0106115D01*
X0059115Y0106165D01*
X0059044Y0106218D01*
X0058976Y0106274D01*
X0058911Y0106333D01*
X0058848Y0106395D01*
X0058788Y0106459D01*
X0058731Y0106527D01*
X0058678Y0106597D01*
X0058627Y0106669D01*
X0058580Y0106743D01*
X0058536Y0106820D01*
X0058496Y0106898D01*
X0058459Y0106978D01*
X0058426Y0107060D01*
X0058397Y0107143D01*
X0058371Y0107228D01*
X0058350Y0107313D01*
X0058332Y0107399D01*
X0058318Y0107486D01*
X0058308Y0107574D01*
X0058302Y0107662D01*
X0058300Y0107750D01*
D14*
X0100323Y0010722D02*
X0007177Y0010722D01*
X0006679Y0011220D02*
X0100821Y0011220D01*
X0101320Y0011719D02*
X0006180Y0011719D01*
X0005682Y0012217D02*
X0101818Y0012217D01*
X0102317Y0012716D02*
X0005183Y0012716D01*
X0004685Y0013214D02*
X0102815Y0013214D01*
X0103314Y0013713D02*
X0004186Y0013713D01*
X0003688Y0014211D02*
X0103812Y0014211D01*
X0104200Y0014599D02*
X0092901Y0003300D01*
X0014599Y0003300D01*
X0003300Y0014599D01*
X0003300Y0065576D01*
X0003585Y0065500D01*
X0008500Y0065500D01*
X0008500Y0076500D01*
X0009000Y0076500D01*
X0009000Y0077000D01*
X0008500Y0077000D01*
X0008500Y0088000D01*
X0003585Y0088000D01*
X0003300Y0087923D01*
X0003300Y0138901D01*
X0014599Y0150200D01*
X0092901Y0150200D01*
X0104200Y0138901D01*
X0104200Y0087923D01*
X0103915Y0088000D01*
X0099000Y0088000D01*
X0099000Y0077000D01*
X0098500Y0077000D01*
X0098500Y0088000D01*
X0093585Y0088000D01*
X0093268Y0087915D01*
X0092982Y0087750D01*
X0092750Y0087518D01*
X0092585Y0087232D01*
X0092500Y0086915D01*
X0092500Y0077000D01*
X0098500Y0077000D01*
X0098500Y0076500D01*
X0099000Y0076500D01*
X0099000Y0065500D01*
X0103915Y0065500D01*
X0104200Y0065576D01*
X0104200Y0014599D01*
X0104200Y0014710D02*
X0003300Y0014710D01*
X0003300Y0015208D02*
X0104200Y0015208D01*
X0104200Y0015707D02*
X0003300Y0015707D01*
X0003300Y0016205D02*
X0104200Y0016205D01*
X0104200Y0016704D02*
X0003300Y0016704D01*
X0003300Y0017202D02*
X0104200Y0017202D01*
X0104200Y0017701D02*
X0003300Y0017701D01*
X0003300Y0018199D02*
X0104200Y0018199D01*
X0104200Y0018698D02*
X0003300Y0018698D01*
X0003300Y0019196D02*
X0104200Y0019196D01*
X0104200Y0019695D02*
X0003300Y0019695D01*
X0003300Y0020193D02*
X0104200Y0020193D01*
X0104200Y0020692D02*
X0003300Y0020692D01*
X0003300Y0021190D02*
X0104200Y0021190D01*
X0104200Y0021689D02*
X0003300Y0021689D01*
X0003300Y0022187D02*
X0104200Y0022187D01*
X0104200Y0022686D02*
X0003300Y0022686D01*
X0003300Y0023184D02*
X0104200Y0023184D01*
X0104200Y0023683D02*
X0003300Y0023683D01*
X0003300Y0024182D02*
X0104200Y0024182D01*
X0104200Y0024680D02*
X0003300Y0024680D01*
X0003300Y0025179D02*
X0104200Y0025179D01*
X0104200Y0025677D02*
X0003300Y0025677D01*
X0003300Y0026176D02*
X0104200Y0026176D01*
X0104200Y0026674D02*
X0003300Y0026674D01*
X0003300Y0027173D02*
X0104200Y0027173D01*
X0104200Y0027671D02*
X0003300Y0027671D01*
X0003300Y0028170D02*
X0104200Y0028170D01*
X0104200Y0028668D02*
X0003300Y0028668D01*
X0003300Y0029167D02*
X0104200Y0029167D01*
X0104200Y0029665D02*
X0003300Y0029665D01*
X0003300Y0030164D02*
X0104200Y0030164D01*
X0104200Y0030662D02*
X0003300Y0030662D01*
X0003300Y0031161D02*
X0104200Y0031161D01*
X0104200Y0031659D02*
X0003300Y0031659D01*
X0003300Y0032158D02*
X0104200Y0032158D01*
X0104200Y0032656D02*
X0003300Y0032656D01*
X0003300Y0033155D02*
X0104200Y0033155D01*
X0104200Y0033653D02*
X0003300Y0033653D01*
X0003300Y0034152D02*
X0104200Y0034152D01*
X0104200Y0034650D02*
X0003300Y0034650D01*
X0003300Y0035149D02*
X0104200Y0035149D01*
X0104200Y0035647D02*
X0003300Y0035647D01*
X0003300Y0036146D02*
X0104200Y0036146D01*
X0104200Y0036644D02*
X0003300Y0036644D01*
X0003300Y0037143D02*
X0104200Y0037143D01*
X0104200Y0037641D02*
X0003300Y0037641D01*
X0003300Y0038140D02*
X0104200Y0038140D01*
X0104200Y0038638D02*
X0003300Y0038638D01*
X0003300Y0039137D02*
X0104200Y0039137D01*
X0104200Y0039635D02*
X0054535Y0039635D01*
X0054501Y0039605D02*
X0054601Y0039695D01*
X0057053Y0039832D01*
X0057163Y0039754D01*
X0057904Y0039880D01*
X0058655Y0039922D01*
X0058745Y0040023D01*
X0061166Y0040434D01*
X0061284Y0040369D01*
X0062006Y0040577D01*
X0062748Y0040703D01*
X0062826Y0040813D01*
X0065185Y0041493D01*
X0065310Y0041441D01*
X0066004Y0041729D01*
X0066727Y0041937D01*
X0066792Y0042055D01*
X0069061Y0042995D01*
X0069190Y0042957D01*
X0069849Y0043321D01*
X0070543Y0043609D01*
X0070595Y0043734D01*
X0072744Y0044921D01*
X0072877Y0044899D01*
X0073490Y0045334D01*
X0074148Y0045697D01*
X0074186Y0045827D01*
X0076188Y0047248D01*
X0076323Y0047240D01*
X0076884Y0047741D01*
X0077497Y0048177D01*
X0077519Y0048310D01*
X0079350Y0049946D01*
X0079485Y0049953D01*
X0079986Y0050514D01*
X0080547Y0051015D01*
X0080554Y0051150D01*
X0082190Y0052981D01*
X0082323Y0053003D01*
X0082759Y0053616D01*
X0083260Y0054177D01*
X0083252Y0054312D01*
X0084673Y0056314D01*
X0084803Y0056352D01*
X0085166Y0057010D01*
X0085601Y0057623D01*
X0085579Y0057756D01*
X0086766Y0059905D01*
X0086891Y0059957D01*
X0087179Y0060651D01*
X0087543Y0061310D01*
X0087505Y0061439D01*
X0088445Y0063708D01*
X0088563Y0063773D01*
X0088771Y0064496D01*
X0089059Y0065190D01*
X0089007Y0065315D01*
X0089687Y0067674D01*
X0089797Y0067752D01*
X0089923Y0068494D01*
X0090131Y0069216D01*
X0090066Y0069334D01*
X0090477Y0071755D01*
X0090578Y0071845D01*
X0090620Y0072596D01*
X0090746Y0073337D01*
X0090668Y0073447D01*
X0090805Y0075899D01*
X0090895Y0075999D01*
X0090853Y0076750D01*
X0090895Y0077501D01*
X0090805Y0077601D01*
X0090668Y0080053D01*
X0090746Y0080163D01*
X0090620Y0080904D01*
X0090578Y0081655D01*
X0090477Y0081745D01*
X0090066Y0084166D01*
X0090131Y0084284D01*
X0089923Y0085006D01*
X0089797Y0085748D01*
X0089687Y0085826D01*
X0089007Y0088185D01*
X0089059Y0088310D01*
X0088771Y0089004D01*
X0088563Y0089727D01*
X0088445Y0089792D01*
X0087505Y0092061D01*
X0087543Y0092190D01*
X0087179Y0092849D01*
X0086891Y0093543D01*
X0086766Y0093595D01*
X0085579Y0095744D01*
X0085601Y0095877D01*
X0085166Y0096490D01*
X0084803Y0097148D01*
X0084673Y0097186D01*
X0083252Y0099188D01*
X0083260Y0099323D01*
X0082759Y0099884D01*
X0082323Y0100497D01*
X0082190Y0100519D01*
X0080554Y0102350D01*
X0080547Y0102485D01*
X0079986Y0102986D01*
X0079485Y0103547D01*
X0079350Y0103554D01*
X0077519Y0105190D01*
X0077497Y0105323D01*
X0076884Y0105759D01*
X0076323Y0106260D01*
X0076188Y0106252D01*
X0074186Y0107673D01*
X0074148Y0107803D01*
X0073490Y0108166D01*
X0072877Y0108601D01*
X0072744Y0108579D01*
X0070595Y0109766D01*
X0070543Y0109891D01*
X0069849Y0110179D01*
X0069190Y0110543D01*
X0069061Y0110505D01*
X0066792Y0111445D01*
X0066727Y0111563D01*
X0066004Y0111771D01*
X0065310Y0112059D01*
X0065185Y0112007D01*
X0062826Y0112687D01*
X0062748Y0112797D01*
X0062006Y0112923D01*
X0061284Y0113131D01*
X0061166Y0113066D01*
X0058745Y0113477D01*
X0058655Y0113578D01*
X0057904Y0113620D01*
X0057163Y0113746D01*
X0057053Y0113668D01*
X0054601Y0113805D01*
X0054501Y0113895D01*
X0053750Y0113853D01*
X0052999Y0113895D01*
X0052899Y0113805D01*
X0050447Y0113668D01*
X0050337Y0113746D01*
X0049596Y0113620D01*
X0048845Y0113578D01*
X0048755Y0113477D01*
X0046334Y0113066D01*
X0046216Y0113131D01*
X0045494Y0112923D01*
X0044752Y0112797D01*
X0044674Y0112687D01*
X0044050Y0112507D01*
X0043471Y0113903D01*
X0042403Y0114971D01*
X0041006Y0115550D01*
X0039494Y0115550D01*
X0038097Y0114971D01*
X0037029Y0113903D01*
X0036450Y0112506D01*
X0036450Y0110994D01*
X0036932Y0109831D01*
X0036905Y0109766D01*
X0034756Y0108579D01*
X0034623Y0108601D01*
X0034010Y0108166D01*
X0033352Y0107803D01*
X0033314Y0107673D01*
X0031312Y0106252D01*
X0031177Y0106260D01*
X0030616Y0105759D01*
X0030003Y0105323D01*
X0029981Y0105190D01*
X0028150Y0103554D01*
X0028015Y0103547D01*
X0027514Y0102986D01*
X0026953Y0102485D01*
X0026946Y0102350D01*
X0025310Y0100519D01*
X0025177Y0100497D01*
X0024741Y0099884D01*
X0024240Y0099323D01*
X0024248Y0099188D01*
X0022827Y0097186D01*
X0022697Y0097148D01*
X0022334Y0096490D01*
X0021899Y0095877D01*
X0021921Y0095744D01*
X0020734Y0093595D01*
X0020609Y0093543D01*
X0020321Y0092849D01*
X0019957Y0092190D01*
X0019995Y0092061D01*
X0019055Y0089792D01*
X0018937Y0089727D01*
X0018729Y0089004D01*
X0018441Y0088310D01*
X0018493Y0088185D01*
X0017813Y0085826D01*
X0017703Y0085748D01*
X0017577Y0085006D01*
X0017369Y0084284D01*
X0017434Y0084166D01*
X0017023Y0081745D01*
X0016922Y0081655D01*
X0016880Y0080904D01*
X0016754Y0080163D01*
X0016832Y0080053D01*
X0016695Y0077601D01*
X0016605Y0077501D01*
X0016647Y0076750D01*
X0016605Y0075999D01*
X0016695Y0075899D01*
X0016832Y0073447D01*
X0016754Y0073337D01*
X0016880Y0072596D01*
X0016922Y0071845D01*
X0017023Y0071755D01*
X0017434Y0069334D01*
X0017369Y0069216D01*
X0017577Y0068494D01*
X0017703Y0067752D01*
X0017813Y0067674D01*
X0018493Y0065315D01*
X0018441Y0065190D01*
X0018729Y0064496D01*
X0018937Y0063773D01*
X0019055Y0063708D01*
X0019995Y0061439D01*
X0019957Y0061310D01*
X0020321Y0060651D01*
X0020609Y0059957D01*
X0020734Y0059905D01*
X0021921Y0057756D01*
X0021899Y0057623D01*
X0022334Y0057010D01*
X0022697Y0056352D01*
X0022827Y0056314D01*
X0024248Y0054312D01*
X0024240Y0054177D01*
X0024741Y0053616D01*
X0025177Y0053003D01*
X0025310Y0052981D01*
X0026946Y0051150D01*
X0026953Y0051015D01*
X0027514Y0050514D01*
X0028015Y0049953D01*
X0028150Y0049946D01*
X0029981Y0048310D01*
X0030003Y0048177D01*
X0030616Y0047741D01*
X0031177Y0047240D01*
X0031312Y0047248D01*
X0033314Y0045827D01*
X0033352Y0045697D01*
X0034010Y0045334D01*
X0034623Y0044899D01*
X0034756Y0044921D01*
X0036905Y0043734D01*
X0036957Y0043609D01*
X0037651Y0043321D01*
X0038310Y0042957D01*
X0038439Y0042995D01*
X0040708Y0042055D01*
X0040773Y0041937D01*
X0041496Y0041729D01*
X0042190Y0041441D01*
X0042315Y0041493D01*
X0044674Y0040813D01*
X0044752Y0040703D01*
X0045494Y0040577D01*
X0046216Y0040369D01*
X0046334Y0040434D01*
X0048755Y0040023D01*
X0048845Y0039922D01*
X0049596Y0039880D01*
X0050337Y0039754D01*
X0050447Y0039832D01*
X0052899Y0039695D01*
X0052999Y0039605D01*
X0053750Y0039647D01*
X0054501Y0039605D01*
X0053952Y0039635D02*
X0053548Y0039635D01*
X0052965Y0039635D02*
X0003300Y0039635D01*
X0003300Y0040134D02*
X0048101Y0040134D01*
X0048902Y0042128D02*
X0058598Y0042128D01*
X0057669Y0041970D02*
X0053750Y0041750D01*
X0049831Y0041970D01*
X0045962Y0042628D01*
X0042190Y0043714D01*
X0038564Y0045216D01*
X0035129Y0047115D01*
X0031928Y0049386D01*
X0029001Y0052001D01*
X0026386Y0054928D01*
X0024115Y0058129D01*
X0022216Y0061564D01*
X0020714Y0065190D01*
X0019628Y0068962D01*
X0018970Y0072831D01*
X0018750Y0076750D01*
X0018970Y0080669D01*
X0019628Y0084538D01*
X0020714Y0088310D01*
X0022216Y0091936D01*
X0024115Y0095371D01*
X0026386Y0098572D01*
X0029001Y0101499D01*
X0031928Y0104114D01*
X0035129Y0106385D01*
X0038564Y0108284D01*
X0039410Y0108634D01*
X0039613Y0108550D01*
X0040887Y0108550D01*
X0042063Y0109037D01*
X0042963Y0109937D01*
X0042996Y0110018D01*
X0045962Y0110872D01*
X0049831Y0111530D01*
X0053750Y0111750D01*
X0057669Y0111530D01*
X0061538Y0110872D01*
X0065310Y0109786D01*
X0068936Y0108284D01*
X0072371Y0106385D01*
X0075572Y0104114D01*
X0078499Y0101499D01*
X0081114Y0098572D01*
X0083385Y0095371D01*
X0085284Y0091936D01*
X0086786Y0088310D01*
X0087872Y0084538D01*
X0088530Y0080669D01*
X0088750Y0076750D01*
X0088530Y0072831D01*
X0087872Y0068962D01*
X0086786Y0065190D01*
X0085284Y0061564D01*
X0083385Y0058129D01*
X0081114Y0054928D01*
X0078499Y0052001D01*
X0075572Y0049386D01*
X0072371Y0047115D01*
X0068936Y0045216D01*
X0065310Y0043714D01*
X0061538Y0042628D01*
X0057669Y0041970D01*
X0059399Y0040134D02*
X0104200Y0040134D01*
X0104200Y0040632D02*
X0062333Y0040632D01*
X0061532Y0042626D02*
X0045968Y0042626D01*
X0044235Y0043125D02*
X0063265Y0043125D01*
X0064995Y0043623D02*
X0042505Y0043623D01*
X0041206Y0044122D02*
X0066295Y0044122D01*
X0067498Y0044620D02*
X0040002Y0044620D01*
X0038798Y0045119D02*
X0068702Y0045119D01*
X0069662Y0045618D02*
X0037838Y0045618D01*
X0036936Y0046116D02*
X0070564Y0046116D01*
X0071466Y0046615D02*
X0036034Y0046615D01*
X0035132Y0047113D02*
X0072368Y0047113D01*
X0073071Y0047612D02*
X0034429Y0047612D01*
X0033726Y0048110D02*
X0073774Y0048110D01*
X0074477Y0048609D02*
X0033023Y0048609D01*
X0032321Y0049107D02*
X0075179Y0049107D01*
X0075818Y0049606D02*
X0031682Y0049606D01*
X0031124Y0050104D02*
X0076376Y0050104D01*
X0076934Y0050603D02*
X0030566Y0050603D01*
X0030009Y0051101D02*
X0077491Y0051101D01*
X0078049Y0051600D02*
X0029451Y0051600D01*
X0028915Y0052098D02*
X0078585Y0052098D01*
X0079031Y0052597D02*
X0028469Y0052597D01*
X0028024Y0053095D02*
X0079476Y0053095D01*
X0079922Y0053594D02*
X0027578Y0053594D01*
X0027133Y0054092D02*
X0080367Y0054092D01*
X0080813Y0054591D02*
X0026687Y0054591D01*
X0026271Y0055089D02*
X0081229Y0055089D01*
X0081582Y0055588D02*
X0025918Y0055588D01*
X0025564Y0056086D02*
X0081936Y0056086D01*
X0082290Y0056585D02*
X0025210Y0056585D01*
X0024857Y0057083D02*
X0082643Y0057083D01*
X0082997Y0057582D02*
X0024503Y0057582D01*
X0024149Y0058080D02*
X0083351Y0058080D01*
X0083634Y0058579D02*
X0023866Y0058579D01*
X0023590Y0059077D02*
X0083910Y0059077D01*
X0084185Y0059576D02*
X0023315Y0059576D01*
X0023039Y0060074D02*
X0084461Y0060074D01*
X0084736Y0060573D02*
X0022764Y0060573D01*
X0022488Y0061071D02*
X0085012Y0061071D01*
X0085286Y0061570D02*
X0022214Y0061570D01*
X0022007Y0062068D02*
X0085493Y0062068D01*
X0085699Y0062567D02*
X0021801Y0062567D01*
X0021594Y0063065D02*
X0085906Y0063065D01*
X0086112Y0063564D02*
X0021388Y0063564D01*
X0021181Y0064062D02*
X0086319Y0064062D01*
X0086525Y0064561D02*
X0020975Y0064561D01*
X0020768Y0065059D02*
X0086732Y0065059D01*
X0086892Y0065558D02*
X0020608Y0065558D01*
X0020465Y0066056D02*
X0087035Y0066056D01*
X0087179Y0066555D02*
X0020321Y0066555D01*
X0020177Y0067053D02*
X0087323Y0067053D01*
X0087466Y0067552D02*
X0020034Y0067552D01*
X0019890Y0068051D02*
X0087610Y0068051D01*
X0087754Y0068549D02*
X0019746Y0068549D01*
X0019613Y0069048D02*
X0087887Y0069048D01*
X0087972Y0069546D02*
X0019528Y0069546D01*
X0019444Y0070045D02*
X0088056Y0070045D01*
X0088141Y0070543D02*
X0019359Y0070543D01*
X0019274Y0071042D02*
X0088226Y0071042D01*
X0088311Y0071540D02*
X0019189Y0071540D01*
X0019105Y0072039D02*
X0088395Y0072039D01*
X0088480Y0072537D02*
X0019020Y0072537D01*
X0018959Y0073036D02*
X0088541Y0073036D01*
X0088569Y0073534D02*
X0018931Y0073534D01*
X0018903Y0074033D02*
X0088597Y0074033D01*
X0088625Y0074531D02*
X0018875Y0074531D01*
X0018847Y0075030D02*
X0088653Y0075030D01*
X0088681Y0075528D02*
X0018819Y0075528D01*
X0018791Y0076027D02*
X0088709Y0076027D01*
X0088737Y0076525D02*
X0018763Y0076525D01*
X0018765Y0077024D02*
X0088735Y0077024D01*
X0088707Y0077522D02*
X0018793Y0077522D01*
X0018821Y0078021D02*
X0088679Y0078021D01*
X0088651Y0078519D02*
X0018849Y0078519D01*
X0018877Y0079018D02*
X0088623Y0079018D01*
X0088595Y0079516D02*
X0018905Y0079516D01*
X0018933Y0080015D02*
X0088567Y0080015D01*
X0088539Y0080513D02*
X0018961Y0080513D01*
X0019028Y0081012D02*
X0088472Y0081012D01*
X0088387Y0081510D02*
X0019113Y0081510D01*
X0019198Y0082009D02*
X0088302Y0082009D01*
X0088218Y0082507D02*
X0019282Y0082507D01*
X0019367Y0083006D02*
X0088133Y0083006D01*
X0088048Y0083504D02*
X0019452Y0083504D01*
X0019537Y0084003D02*
X0087963Y0084003D01*
X0087879Y0084501D02*
X0019621Y0084501D01*
X0019761Y0085000D02*
X0087739Y0085000D01*
X0087596Y0085498D02*
X0019904Y0085498D01*
X0020048Y0085997D02*
X0087452Y0085997D01*
X0087309Y0086495D02*
X0020191Y0086495D01*
X0020335Y0086994D02*
X0087165Y0086994D01*
X0087021Y0087492D02*
X0020479Y0087492D01*
X0020622Y0087991D02*
X0086878Y0087991D01*
X0086711Y0088489D02*
X0020789Y0088489D01*
X0020995Y0088988D02*
X0086505Y0088988D01*
X0086298Y0089487D02*
X0021202Y0089487D01*
X0021408Y0089985D02*
X0086092Y0089985D01*
X0085886Y0090484D02*
X0021614Y0090484D01*
X0021821Y0090982D02*
X0085679Y0090982D01*
X0085473Y0091481D02*
X0022027Y0091481D01*
X0022240Y0091979D02*
X0085260Y0091979D01*
X0084985Y0092478D02*
X0022515Y0092478D01*
X0022791Y0092976D02*
X0084709Y0092976D01*
X0084434Y0093475D02*
X0023066Y0093475D01*
X0023342Y0093973D02*
X0084158Y0093973D01*
X0083882Y0094472D02*
X0023618Y0094472D01*
X0023893Y0094970D02*
X0083607Y0094970D01*
X0083316Y0095469D02*
X0024184Y0095469D01*
X0024538Y0095967D02*
X0082962Y0095967D01*
X0082609Y0096466D02*
X0024891Y0096466D01*
X0025245Y0096964D02*
X0082255Y0096964D01*
X0081901Y0097463D02*
X0025599Y0097463D01*
X0025952Y0097961D02*
X0081548Y0097961D01*
X0081194Y0098460D02*
X0026306Y0098460D01*
X0026731Y0098958D02*
X0080769Y0098958D01*
X0080324Y0099457D02*
X0027176Y0099457D01*
X0027622Y0099955D02*
X0079878Y0099955D01*
X0079433Y0100454D02*
X0028067Y0100454D01*
X0028513Y0100952D02*
X0038642Y0100952D01*
X0038437Y0101037D02*
X0039613Y0100550D01*
X0040887Y0100550D01*
X0042063Y0101037D01*
X0042963Y0101937D01*
X0043450Y0103113D01*
X0043450Y0104387D01*
X0042963Y0105563D01*
X0042063Y0106463D01*
X0040887Y0106950D01*
X0039613Y0106950D01*
X0038437Y0106463D01*
X0037537Y0105563D01*
X0037050Y0104387D01*
X0037050Y0103113D01*
X0037537Y0101937D01*
X0038437Y0101037D01*
X0038024Y0101451D02*
X0028958Y0101451D01*
X0029505Y0101949D02*
X0037532Y0101949D01*
X0037326Y0102448D02*
X0030063Y0102448D01*
X0030621Y0102946D02*
X0037119Y0102946D01*
X0037050Y0103445D02*
X0031179Y0103445D01*
X0031737Y0103943D02*
X0037050Y0103943D01*
X0037073Y0104442D02*
X0032390Y0104442D01*
X0033092Y0104940D02*
X0037279Y0104940D01*
X0037486Y0105439D02*
X0033795Y0105439D01*
X0034498Y0105937D02*
X0037912Y0105937D01*
X0038410Y0106436D02*
X0035220Y0106436D01*
X0036122Y0106934D02*
X0039576Y0106934D01*
X0038917Y0108430D02*
X0057068Y0108430D01*
X0057050Y0108387D02*
X0057050Y0107113D01*
X0057537Y0105937D01*
X0058437Y0105037D01*
X0059613Y0104550D01*
X0060887Y0104550D01*
X0062063Y0105037D01*
X0062963Y0105937D01*
X0063450Y0107113D01*
X0063450Y0108387D01*
X0062963Y0109563D01*
X0062063Y0110463D01*
X0060887Y0110950D01*
X0059613Y0110950D01*
X0058437Y0110463D01*
X0057537Y0109563D01*
X0057050Y0108387D01*
X0057050Y0107931D02*
X0037926Y0107931D01*
X0037024Y0107433D02*
X0057050Y0107433D01*
X0057124Y0106934D02*
X0040924Y0106934D01*
X0042090Y0106436D02*
X0057331Y0106436D01*
X0057537Y0105937D02*
X0042588Y0105937D01*
X0043014Y0105439D02*
X0058036Y0105439D01*
X0058671Y0104940D02*
X0043221Y0104940D01*
X0043427Y0104442D02*
X0075110Y0104442D01*
X0075763Y0103943D02*
X0043450Y0103943D01*
X0043450Y0103445D02*
X0076321Y0103445D01*
X0076879Y0102946D02*
X0043381Y0102946D01*
X0043174Y0102448D02*
X0077437Y0102448D01*
X0077995Y0101949D02*
X0042968Y0101949D01*
X0042476Y0101451D02*
X0078542Y0101451D01*
X0078987Y0100952D02*
X0041858Y0100952D01*
X0041800Y0108928D02*
X0057274Y0108928D01*
X0057481Y0109427D02*
X0042452Y0109427D01*
X0042951Y0109925D02*
X0057900Y0109925D01*
X0058398Y0110424D02*
X0044405Y0110424D01*
X0046256Y0110922D02*
X0059547Y0110922D01*
X0058310Y0111421D02*
X0049190Y0111421D01*
X0048390Y0113415D02*
X0043673Y0113415D01*
X0043880Y0112917D02*
X0045455Y0112917D01*
X0043460Y0113914D02*
X0104200Y0113914D01*
X0104200Y0114412D02*
X0042962Y0114412D01*
X0042463Y0114911D02*
X0104200Y0114911D01*
X0104200Y0115409D02*
X0041346Y0115409D01*
X0039154Y0115409D02*
X0003300Y0115409D01*
X0003300Y0114911D02*
X0038037Y0114911D01*
X0037538Y0114412D02*
X0003300Y0114412D01*
X0003300Y0113914D02*
X0037040Y0113914D01*
X0036827Y0113415D02*
X0003300Y0113415D01*
X0003300Y0112917D02*
X0036620Y0112917D01*
X0036450Y0112418D02*
X0003300Y0112418D01*
X0003300Y0111920D02*
X0036450Y0111920D01*
X0036450Y0111421D02*
X0003300Y0111421D01*
X0003300Y0110922D02*
X0036480Y0110922D01*
X0036686Y0110424D02*
X0003300Y0110424D01*
X0003300Y0109925D02*
X0036893Y0109925D01*
X0036291Y0109427D02*
X0003300Y0109427D01*
X0003300Y0108928D02*
X0035389Y0108928D01*
X0034381Y0108430D02*
X0003300Y0108430D01*
X0003300Y0107931D02*
X0033585Y0107931D01*
X0032976Y0107433D02*
X0003300Y0107433D01*
X0003300Y0106934D02*
X0032274Y0106934D01*
X0031571Y0106436D02*
X0003300Y0106436D01*
X0003300Y0105937D02*
X0030817Y0105937D01*
X0030166Y0105439D02*
X0003300Y0105439D01*
X0003300Y0104940D02*
X0029701Y0104940D01*
X0029143Y0104442D02*
X0003300Y0104442D01*
X0003300Y0103943D02*
X0028585Y0103943D01*
X0027924Y0103445D02*
X0003300Y0103445D01*
X0003300Y0102946D02*
X0027470Y0102946D01*
X0026951Y0102448D02*
X0003300Y0102448D01*
X0003300Y0101949D02*
X0026588Y0101949D01*
X0026142Y0101451D02*
X0003300Y0101451D01*
X0003300Y0100952D02*
X0025697Y0100952D01*
X0025146Y0100454D02*
X0003300Y0100454D01*
X0003300Y0099955D02*
X0024792Y0099955D01*
X0024360Y0099457D02*
X0003300Y0099457D01*
X0003300Y0098958D02*
X0024085Y0098958D01*
X0023731Y0098460D02*
X0003300Y0098460D01*
X0003300Y0097961D02*
X0023378Y0097961D01*
X0023024Y0097463D02*
X0003300Y0097463D01*
X0003300Y0096964D02*
X0022596Y0096964D01*
X0022316Y0096466D02*
X0003300Y0096466D01*
X0003300Y0095967D02*
X0021963Y0095967D01*
X0021769Y0095469D02*
X0003300Y0095469D01*
X0003300Y0094970D02*
X0021494Y0094970D01*
X0021218Y0094472D02*
X0003300Y0094472D01*
X0003300Y0093973D02*
X0020943Y0093973D01*
X0020580Y0093475D02*
X0003300Y0093475D01*
X0003300Y0092976D02*
X0020374Y0092976D01*
X0020116Y0092478D02*
X0003300Y0092478D01*
X0003300Y0091979D02*
X0019961Y0091979D01*
X0019754Y0091481D02*
X0003300Y0091481D01*
X0003300Y0090982D02*
X0019548Y0090982D01*
X0019341Y0090484D02*
X0003300Y0090484D01*
X0003300Y0089985D02*
X0019135Y0089985D01*
X0018868Y0089487D02*
X0003300Y0089487D01*
X0003300Y0088988D02*
X0018722Y0088988D01*
X0018516Y0088489D02*
X0003300Y0088489D01*
X0003300Y0087991D02*
X0003552Y0087991D01*
X0008500Y0087991D02*
X0009000Y0087991D01*
X0009000Y0088000D02*
X0009000Y0077000D01*
X0015000Y0077000D01*
X0015000Y0086915D01*
X0014915Y0087232D01*
X0014750Y0087518D01*
X0014518Y0087750D01*
X0014232Y0087915D01*
X0013915Y0088000D01*
X0009000Y0088000D01*
X0009000Y0087492D02*
X0008500Y0087492D01*
X0008500Y0086994D02*
X0009000Y0086994D01*
X0009000Y0086495D02*
X0008500Y0086495D01*
X0008500Y0085997D02*
X0009000Y0085997D01*
X0009000Y0085498D02*
X0008500Y0085498D01*
X0008500Y0085000D02*
X0009000Y0085000D01*
X0009000Y0084501D02*
X0008500Y0084501D01*
X0008500Y0084003D02*
X0009000Y0084003D01*
X0009000Y0083504D02*
X0008500Y0083504D01*
X0008500Y0083006D02*
X0009000Y0083006D01*
X0009000Y0082507D02*
X0008500Y0082507D01*
X0008500Y0082009D02*
X0009000Y0082009D01*
X0009000Y0081510D02*
X0008500Y0081510D01*
X0008500Y0081012D02*
X0009000Y0081012D01*
X0009000Y0080513D02*
X0008500Y0080513D01*
X0008500Y0080015D02*
X0009000Y0080015D01*
X0009000Y0079516D02*
X0008500Y0079516D01*
X0008500Y0079018D02*
X0009000Y0079018D01*
X0009000Y0078519D02*
X0008500Y0078519D01*
X0008500Y0078021D02*
X0009000Y0078021D01*
X0009000Y0077522D02*
X0008500Y0077522D01*
X0008500Y0077024D02*
X0009000Y0077024D01*
X0009000Y0076525D02*
X0016634Y0076525D01*
X0016631Y0077024D02*
X0015000Y0077024D01*
X0015000Y0077522D02*
X0016624Y0077522D01*
X0016718Y0078021D02*
X0015000Y0078021D01*
X0015000Y0078519D02*
X0016746Y0078519D01*
X0016774Y0079018D02*
X0015000Y0079018D01*
X0015000Y0079516D02*
X0016802Y0079516D01*
X0016830Y0080015D02*
X0015000Y0080015D01*
X0015000Y0080513D02*
X0016814Y0080513D01*
X0016886Y0081012D02*
X0015000Y0081012D01*
X0015000Y0081510D02*
X0016914Y0081510D01*
X0017068Y0082009D02*
X0015000Y0082009D01*
X0015000Y0082507D02*
X0017152Y0082507D01*
X0017237Y0083006D02*
X0015000Y0083006D01*
X0015000Y0083504D02*
X0017322Y0083504D01*
X0017406Y0084003D02*
X0015000Y0084003D01*
X0015000Y0084501D02*
X0017432Y0084501D01*
X0017575Y0085000D02*
X0015000Y0085000D01*
X0015000Y0085498D02*
X0017661Y0085498D01*
X0017862Y0085997D02*
X0015000Y0085997D01*
X0015000Y0086495D02*
X0018006Y0086495D01*
X0018150Y0086994D02*
X0014979Y0086994D01*
X0014765Y0087492D02*
X0018293Y0087492D01*
X0018437Y0087991D02*
X0013948Y0087991D01*
X0015000Y0076500D02*
X0009000Y0076500D01*
X0009000Y0065500D01*
X0013915Y0065500D01*
X0014232Y0065585D01*
X0014518Y0065750D01*
X0014750Y0065982D01*
X0014915Y0066268D01*
X0015000Y0066585D01*
X0015000Y0076500D01*
X0015000Y0076027D02*
X0016606Y0076027D01*
X0016715Y0075528D02*
X0015000Y0075528D01*
X0015000Y0075030D02*
X0016743Y0075030D01*
X0016771Y0074531D02*
X0015000Y0074531D01*
X0015000Y0074033D02*
X0016799Y0074033D01*
X0016827Y0073534D02*
X0015000Y0073534D01*
X0015000Y0073036D02*
X0016805Y0073036D01*
X0016883Y0072537D02*
X0015000Y0072537D01*
X0015000Y0072039D02*
X0016911Y0072039D01*
X0017059Y0071540D02*
X0015000Y0071540D01*
X0015000Y0071042D02*
X0017144Y0071042D01*
X0017229Y0070543D02*
X0015000Y0070543D01*
X0015000Y0070045D02*
X0017313Y0070045D01*
X0017398Y0069546D02*
X0015000Y0069546D01*
X0015000Y0069048D02*
X0017417Y0069048D01*
X0017561Y0068549D02*
X0015000Y0068549D01*
X0015000Y0068051D02*
X0017652Y0068051D01*
X0017848Y0067552D02*
X0015000Y0067552D01*
X0015000Y0067053D02*
X0017992Y0067053D01*
X0018135Y0066555D02*
X0014992Y0066555D01*
X0014793Y0066056D02*
X0018279Y0066056D01*
X0018423Y0065558D02*
X0014131Y0065558D01*
X0018495Y0065059D02*
X0003300Y0065059D01*
X0003300Y0064561D02*
X0018702Y0064561D01*
X0018854Y0064062D02*
X0003300Y0064062D01*
X0003300Y0063564D02*
X0019115Y0063564D01*
X0019321Y0063065D02*
X0003300Y0063065D01*
X0003300Y0062567D02*
X0019528Y0062567D01*
X0019734Y0062068D02*
X0003300Y0062068D01*
X0003300Y0061570D02*
X0019941Y0061570D01*
X0020089Y0061071D02*
X0003300Y0061071D01*
X0003300Y0060573D02*
X0020354Y0060573D01*
X0020560Y0060074D02*
X0003300Y0060074D01*
X0003300Y0059576D02*
X0020916Y0059576D01*
X0021191Y0059077D02*
X0003300Y0059077D01*
X0003300Y0058579D02*
X0021467Y0058579D01*
X0021742Y0058080D02*
X0003300Y0058080D01*
X0003300Y0057582D02*
X0021928Y0057582D01*
X0022282Y0057083D02*
X0003300Y0057083D01*
X0003300Y0056585D02*
X0022569Y0056585D01*
X0022989Y0056086D02*
X0003300Y0056086D01*
X0003300Y0055588D02*
X0023343Y0055588D01*
X0023696Y0055089D02*
X0003300Y0055089D01*
X0003300Y0054591D02*
X0024050Y0054591D01*
X0024316Y0054092D02*
X0003300Y0054092D01*
X0003300Y0053594D02*
X0024758Y0053594D01*
X0025111Y0053095D02*
X0003300Y0053095D01*
X0003300Y0052597D02*
X0025653Y0052597D01*
X0026098Y0052098D02*
X0003300Y0052098D01*
X0003300Y0051600D02*
X0026544Y0051600D01*
X0026949Y0051101D02*
X0003300Y0051101D01*
X0003300Y0050603D02*
X0027415Y0050603D01*
X0027880Y0050104D02*
X0003300Y0050104D01*
X0003300Y0049606D02*
X0028531Y0049606D01*
X0029088Y0049107D02*
X0003300Y0049107D01*
X0003300Y0048609D02*
X0029646Y0048609D01*
X0030097Y0048110D02*
X0003300Y0048110D01*
X0003300Y0047612D02*
X0030762Y0047612D01*
X0031502Y0047113D02*
X0003300Y0047113D01*
X0003300Y0046615D02*
X0032205Y0046615D01*
X0032907Y0046116D02*
X0003300Y0046116D01*
X0003300Y0045618D02*
X0033496Y0045618D01*
X0034312Y0045119D02*
X0003300Y0045119D01*
X0003300Y0044620D02*
X0035300Y0044620D01*
X0036202Y0044122D02*
X0003300Y0044122D01*
X0003300Y0043623D02*
X0036951Y0043623D01*
X0038006Y0043125D02*
X0003300Y0043125D01*
X0003300Y0042626D02*
X0039329Y0042626D01*
X0040532Y0042128D02*
X0003300Y0042128D01*
X0003300Y0041629D02*
X0041736Y0041629D01*
X0043571Y0041131D02*
X0003300Y0041131D01*
X0003300Y0040632D02*
X0045167Y0040632D01*
X0060750Y0052250D02*
X0061750Y0052250D01*
X0065764Y0041629D02*
X0104200Y0041629D01*
X0104200Y0041131D02*
X0063929Y0041131D01*
X0066968Y0042128D02*
X0104200Y0042128D01*
X0104200Y0042626D02*
X0068171Y0042626D01*
X0069494Y0043125D02*
X0104200Y0043125D01*
X0104200Y0043623D02*
X0070549Y0043623D01*
X0071298Y0044122D02*
X0104200Y0044122D01*
X0104200Y0044620D02*
X0072200Y0044620D01*
X0073188Y0045119D02*
X0104200Y0045119D01*
X0104200Y0045618D02*
X0074004Y0045618D01*
X0074593Y0046116D02*
X0104200Y0046116D01*
X0104200Y0046615D02*
X0075295Y0046615D01*
X0075998Y0047113D02*
X0104200Y0047113D01*
X0104200Y0047612D02*
X0076738Y0047612D01*
X0077403Y0048110D02*
X0104200Y0048110D01*
X0104200Y0048609D02*
X0077854Y0048609D01*
X0078412Y0049107D02*
X0104200Y0049107D01*
X0104200Y0049606D02*
X0078969Y0049606D01*
X0079620Y0050104D02*
X0104200Y0050104D01*
X0104200Y0050603D02*
X0080085Y0050603D01*
X0080551Y0051101D02*
X0104200Y0051101D01*
X0104200Y0051600D02*
X0080956Y0051600D01*
X0081402Y0052098D02*
X0104200Y0052098D01*
X0104200Y0052597D02*
X0081847Y0052597D01*
X0082389Y0053095D02*
X0104200Y0053095D01*
X0104200Y0053594D02*
X0082742Y0053594D01*
X0083184Y0054092D02*
X0104200Y0054092D01*
X0104200Y0054591D02*
X0083450Y0054591D01*
X0083803Y0055089D02*
X0104200Y0055089D01*
X0104200Y0055588D02*
X0084157Y0055588D01*
X0084511Y0056086D02*
X0104200Y0056086D01*
X0104200Y0056585D02*
X0084931Y0056585D01*
X0085218Y0057083D02*
X0104200Y0057083D01*
X0104200Y0057582D02*
X0085572Y0057582D01*
X0085758Y0058080D02*
X0104200Y0058080D01*
X0104200Y0058579D02*
X0086033Y0058579D01*
X0086309Y0059077D02*
X0104200Y0059077D01*
X0104200Y0059576D02*
X0086584Y0059576D01*
X0086940Y0060074D02*
X0104200Y0060074D01*
X0104200Y0060573D02*
X0087146Y0060573D01*
X0087411Y0061071D02*
X0104200Y0061071D01*
X0104200Y0061570D02*
X0087559Y0061570D01*
X0087766Y0062068D02*
X0104200Y0062068D01*
X0104200Y0062567D02*
X0087972Y0062567D01*
X0088179Y0063065D02*
X0104200Y0063065D01*
X0104200Y0063564D02*
X0088385Y0063564D01*
X0088646Y0064062D02*
X0104200Y0064062D01*
X0104200Y0064561D02*
X0088798Y0064561D01*
X0089005Y0065059D02*
X0104200Y0065059D01*
X0104200Y0065558D02*
X0104131Y0065558D01*
X0099000Y0065558D02*
X0098500Y0065558D01*
X0098500Y0065500D02*
X0098500Y0076500D01*
X0092500Y0076500D01*
X0092500Y0066585D01*
X0092585Y0066268D01*
X0092750Y0065982D01*
X0092982Y0065750D01*
X0093268Y0065585D01*
X0093585Y0065500D01*
X0098500Y0065500D01*
X0098500Y0066056D02*
X0099000Y0066056D01*
X0099000Y0066555D02*
X0098500Y0066555D01*
X0098500Y0067053D02*
X0099000Y0067053D01*
X0099000Y0067552D02*
X0098500Y0067552D01*
X0098500Y0068051D02*
X0099000Y0068051D01*
X0099000Y0068549D02*
X0098500Y0068549D01*
X0098500Y0069048D02*
X0099000Y0069048D01*
X0099000Y0069546D02*
X0098500Y0069546D01*
X0098500Y0070045D02*
X0099000Y0070045D01*
X0099000Y0070543D02*
X0098500Y0070543D01*
X0098500Y0071042D02*
X0099000Y0071042D01*
X0099000Y0071540D02*
X0098500Y0071540D01*
X0098500Y0072039D02*
X0099000Y0072039D01*
X0099000Y0072537D02*
X0098500Y0072537D01*
X0098500Y0073036D02*
X0099000Y0073036D01*
X0099000Y0073534D02*
X0098500Y0073534D01*
X0098500Y0074033D02*
X0099000Y0074033D01*
X0099000Y0074531D02*
X0098500Y0074531D01*
X0098500Y0075030D02*
X0099000Y0075030D01*
X0099000Y0075528D02*
X0098500Y0075528D01*
X0098500Y0076027D02*
X0099000Y0076027D01*
X0098500Y0076525D02*
X0090866Y0076525D01*
X0090869Y0077024D02*
X0092500Y0077024D01*
X0092500Y0077522D02*
X0090876Y0077522D01*
X0090782Y0078021D02*
X0092500Y0078021D01*
X0092500Y0078519D02*
X0090754Y0078519D01*
X0090726Y0079018D02*
X0092500Y0079018D01*
X0092500Y0079516D02*
X0090698Y0079516D01*
X0090670Y0080015D02*
X0092500Y0080015D01*
X0092500Y0080513D02*
X0090686Y0080513D01*
X0090614Y0081012D02*
X0092500Y0081012D01*
X0092500Y0081510D02*
X0090586Y0081510D01*
X0090432Y0082009D02*
X0092500Y0082009D01*
X0092500Y0082507D02*
X0090348Y0082507D01*
X0090263Y0083006D02*
X0092500Y0083006D01*
X0092500Y0083504D02*
X0090178Y0083504D01*
X0090094Y0084003D02*
X0092500Y0084003D01*
X0092500Y0084501D02*
X0090069Y0084501D01*
X0089925Y0085000D02*
X0092500Y0085000D01*
X0092500Y0085498D02*
X0089839Y0085498D01*
X0089638Y0085997D02*
X0092500Y0085997D01*
X0092500Y0086495D02*
X0089494Y0086495D01*
X0089350Y0086994D02*
X0092521Y0086994D01*
X0092735Y0087492D02*
X0089207Y0087492D01*
X0089063Y0087991D02*
X0093552Y0087991D01*
X0098500Y0087991D02*
X0099000Y0087991D01*
X0099000Y0087492D02*
X0098500Y0087492D01*
X0098500Y0086994D02*
X0099000Y0086994D01*
X0099000Y0086495D02*
X0098500Y0086495D01*
X0098500Y0085997D02*
X0099000Y0085997D01*
X0099000Y0085498D02*
X0098500Y0085498D01*
X0098500Y0085000D02*
X0099000Y0085000D01*
X0099000Y0084501D02*
X0098500Y0084501D01*
X0098500Y0084003D02*
X0099000Y0084003D01*
X0099000Y0083504D02*
X0098500Y0083504D01*
X0098500Y0083006D02*
X0099000Y0083006D01*
X0099000Y0082507D02*
X0098500Y0082507D01*
X0098500Y0082009D02*
X0099000Y0082009D01*
X0099000Y0081510D02*
X0098500Y0081510D01*
X0098500Y0081012D02*
X0099000Y0081012D01*
X0099000Y0080513D02*
X0098500Y0080513D01*
X0098500Y0080015D02*
X0099000Y0080015D01*
X0099000Y0079516D02*
X0098500Y0079516D01*
X0098500Y0079018D02*
X0099000Y0079018D01*
X0099000Y0078519D02*
X0098500Y0078519D01*
X0098500Y0078021D02*
X0099000Y0078021D01*
X0099000Y0077522D02*
X0098500Y0077522D01*
X0098500Y0077024D02*
X0099000Y0077024D01*
X0092500Y0076027D02*
X0090894Y0076027D01*
X0090785Y0075528D02*
X0092500Y0075528D01*
X0092500Y0075030D02*
X0090757Y0075030D01*
X0090729Y0074531D02*
X0092500Y0074531D01*
X0092500Y0074033D02*
X0090701Y0074033D01*
X0090673Y0073534D02*
X0092500Y0073534D01*
X0092500Y0073036D02*
X0090695Y0073036D01*
X0090617Y0072537D02*
X0092500Y0072537D01*
X0092500Y0072039D02*
X0090589Y0072039D01*
X0090441Y0071540D02*
X0092500Y0071540D01*
X0092500Y0071042D02*
X0090356Y0071042D01*
X0090271Y0070543D02*
X0092500Y0070543D01*
X0092500Y0070045D02*
X0090187Y0070045D01*
X0090102Y0069546D02*
X0092500Y0069546D01*
X0092500Y0069048D02*
X0090083Y0069048D01*
X0089939Y0068549D02*
X0092500Y0068549D01*
X0092500Y0068051D02*
X0089848Y0068051D01*
X0089652Y0067552D02*
X0092500Y0067552D01*
X0092500Y0067053D02*
X0089508Y0067053D01*
X0089364Y0066555D02*
X0092508Y0066555D01*
X0092707Y0066056D02*
X0089221Y0066056D01*
X0089077Y0065558D02*
X0093369Y0065558D01*
X0083750Y0076750D02*
X0083750Y0077750D01*
X0088984Y0088489D02*
X0104200Y0088489D01*
X0104200Y0087991D02*
X0103948Y0087991D01*
X0104200Y0088988D02*
X0088778Y0088988D01*
X0088632Y0089487D02*
X0104200Y0089487D01*
X0104200Y0089985D02*
X0088365Y0089985D01*
X0088159Y0090484D02*
X0104200Y0090484D01*
X0104200Y0090982D02*
X0087952Y0090982D01*
X0087746Y0091481D02*
X0104200Y0091481D01*
X0104200Y0091979D02*
X0087539Y0091979D01*
X0087384Y0092478D02*
X0104200Y0092478D01*
X0104200Y0092976D02*
X0087126Y0092976D01*
X0086920Y0093475D02*
X0104200Y0093475D01*
X0104200Y0093973D02*
X0086557Y0093973D01*
X0086282Y0094472D02*
X0104200Y0094472D01*
X0104200Y0094970D02*
X0086006Y0094970D01*
X0085731Y0095469D02*
X0104200Y0095469D01*
X0104200Y0095967D02*
X0085537Y0095967D01*
X0085184Y0096466D02*
X0104200Y0096466D01*
X0104200Y0096964D02*
X0084904Y0096964D01*
X0084476Y0097463D02*
X0104200Y0097463D01*
X0104200Y0097961D02*
X0084122Y0097961D01*
X0083769Y0098460D02*
X0104200Y0098460D01*
X0104200Y0098958D02*
X0083415Y0098958D01*
X0083140Y0099457D02*
X0104200Y0099457D01*
X0104200Y0099955D02*
X0082708Y0099955D01*
X0082354Y0100454D02*
X0104200Y0100454D01*
X0104200Y0100952D02*
X0081803Y0100952D01*
X0081358Y0101451D02*
X0104200Y0101451D01*
X0104200Y0101949D02*
X0080912Y0101949D01*
X0080549Y0102448D02*
X0104200Y0102448D01*
X0104200Y0102946D02*
X0080030Y0102946D01*
X0079576Y0103445D02*
X0104200Y0103445D01*
X0104200Y0103943D02*
X0078915Y0103943D01*
X0078357Y0104442D02*
X0104200Y0104442D01*
X0104200Y0104940D02*
X0077799Y0104940D01*
X0077334Y0105439D02*
X0104200Y0105439D01*
X0104200Y0105937D02*
X0076683Y0105937D01*
X0075929Y0106436D02*
X0104200Y0106436D01*
X0104200Y0106934D02*
X0075226Y0106934D01*
X0074524Y0107433D02*
X0104200Y0107433D01*
X0104200Y0107931D02*
X0073915Y0107931D01*
X0073119Y0108430D02*
X0104200Y0108430D01*
X0104200Y0108928D02*
X0072111Y0108928D01*
X0071209Y0109427D02*
X0104200Y0109427D01*
X0104200Y0109925D02*
X0070460Y0109925D01*
X0069405Y0110424D02*
X0104200Y0110424D01*
X0104200Y0110922D02*
X0068053Y0110922D01*
X0066850Y0111421D02*
X0104200Y0111421D01*
X0104200Y0111920D02*
X0065646Y0111920D01*
X0064825Y0109925D02*
X0062600Y0109925D01*
X0063019Y0109427D02*
X0066176Y0109427D01*
X0067380Y0108928D02*
X0063226Y0108928D01*
X0063432Y0108430D02*
X0068583Y0108430D01*
X0069574Y0107931D02*
X0063450Y0107931D01*
X0063450Y0107433D02*
X0070476Y0107433D01*
X0071378Y0106934D02*
X0063376Y0106934D01*
X0063169Y0106436D02*
X0072280Y0106436D01*
X0073002Y0105937D02*
X0062963Y0105937D01*
X0062464Y0105439D02*
X0073705Y0105439D01*
X0074408Y0104940D02*
X0061829Y0104940D01*
X0065250Y0102250D02*
X0066750Y0102250D01*
X0063095Y0110424D02*
X0062101Y0110424D01*
X0061244Y0110922D02*
X0060953Y0110922D01*
X0062045Y0112917D02*
X0104200Y0112917D01*
X0104200Y0113415D02*
X0059110Y0113415D01*
X0063759Y0112418D02*
X0104200Y0112418D01*
X0104200Y0115908D02*
X0003300Y0115908D01*
X0003300Y0116406D02*
X0104200Y0116406D01*
X0104200Y0116905D02*
X0003300Y0116905D01*
X0003300Y0117403D02*
X0104200Y0117403D01*
X0104200Y0117902D02*
X0003300Y0117902D01*
X0003300Y0118400D02*
X0104200Y0118400D01*
X0104200Y0118899D02*
X0003300Y0118899D01*
X0003300Y0119397D02*
X0104200Y0119397D01*
X0104200Y0119896D02*
X0003300Y0119896D01*
X0003300Y0120394D02*
X0104200Y0120394D01*
X0104200Y0120893D02*
X0003300Y0120893D01*
X0003300Y0121391D02*
X0104200Y0121391D01*
X0104200Y0121890D02*
X0003300Y0121890D01*
X0003300Y0122388D02*
X0104200Y0122388D01*
X0104200Y0122887D02*
X0003300Y0122887D01*
X0003300Y0123385D02*
X0104200Y0123385D01*
X0104200Y0123884D02*
X0003300Y0123884D01*
X0003300Y0124382D02*
X0104200Y0124382D01*
X0104200Y0124881D02*
X0003300Y0124881D01*
X0003300Y0125379D02*
X0104200Y0125379D01*
X0104200Y0125878D02*
X0003300Y0125878D01*
X0003300Y0126376D02*
X0104200Y0126376D01*
X0104200Y0126875D02*
X0003300Y0126875D01*
X0003300Y0127373D02*
X0104200Y0127373D01*
X0104200Y0127872D02*
X0003300Y0127872D01*
X0003300Y0128370D02*
X0104200Y0128370D01*
X0104200Y0128869D02*
X0003300Y0128869D01*
X0003300Y0129367D02*
X0104200Y0129367D01*
X0104200Y0129866D02*
X0003300Y0129866D01*
X0003300Y0130364D02*
X0104200Y0130364D01*
X0104200Y0130863D02*
X0003300Y0130863D01*
X0003300Y0131361D02*
X0104200Y0131361D01*
X0104200Y0131860D02*
X0003300Y0131860D01*
X0003300Y0132358D02*
X0104200Y0132358D01*
X0104200Y0132857D02*
X0003300Y0132857D01*
X0003300Y0133355D02*
X0104200Y0133355D01*
X0104200Y0133854D02*
X0003300Y0133854D01*
X0003300Y0134353D02*
X0104200Y0134353D01*
X0104200Y0134851D02*
X0003300Y0134851D01*
X0003300Y0135350D02*
X0104200Y0135350D01*
X0104200Y0135848D02*
X0003300Y0135848D01*
X0003300Y0136347D02*
X0104200Y0136347D01*
X0104200Y0136845D02*
X0003300Y0136845D01*
X0003300Y0137344D02*
X0104200Y0137344D01*
X0104200Y0137842D02*
X0003300Y0137842D01*
X0003300Y0138341D02*
X0104200Y0138341D01*
X0104200Y0138839D02*
X0003300Y0138839D01*
X0003737Y0139338D02*
X0103763Y0139338D01*
X0103265Y0139836D02*
X0004235Y0139836D01*
X0004734Y0140335D02*
X0102766Y0140335D01*
X0102268Y0140833D02*
X0005232Y0140833D01*
X0005731Y0141332D02*
X0101769Y0141332D01*
X0101271Y0141830D02*
X0006229Y0141830D01*
X0006728Y0142329D02*
X0100772Y0142329D01*
X0100274Y0142827D02*
X0007226Y0142827D01*
X0007725Y0143326D02*
X0099775Y0143326D01*
X0099277Y0143824D02*
X0008223Y0143824D01*
X0008722Y0144323D02*
X0098778Y0144323D01*
X0098280Y0144821D02*
X0009220Y0144821D01*
X0009719Y0145320D02*
X0097781Y0145320D01*
X0097283Y0145818D02*
X0010217Y0145818D01*
X0010716Y0146317D02*
X0096784Y0146317D01*
X0096286Y0146815D02*
X0011214Y0146815D01*
X0011713Y0147314D02*
X0095787Y0147314D01*
X0095289Y0147812D02*
X0012211Y0147812D01*
X0012710Y0148311D02*
X0094790Y0148311D01*
X0094291Y0148809D02*
X0013208Y0148809D01*
X0013707Y0149308D02*
X0093793Y0149308D01*
X0093294Y0149806D02*
X0014205Y0149806D01*
X0021250Y0105250D02*
X0021250Y0103750D01*
X0022250Y0102750D01*
X0036750Y0082750D02*
X0038250Y0082750D01*
X0037750Y0071750D02*
X0038750Y0071750D01*
X0023750Y0076750D02*
X0023750Y0077750D01*
X0009000Y0076027D02*
X0008500Y0076027D01*
X0008500Y0075528D02*
X0009000Y0075528D01*
X0009000Y0075030D02*
X0008500Y0075030D01*
X0008500Y0074531D02*
X0009000Y0074531D01*
X0009000Y0074033D02*
X0008500Y0074033D01*
X0008500Y0073534D02*
X0009000Y0073534D01*
X0009000Y0073036D02*
X0008500Y0073036D01*
X0008500Y0072537D02*
X0009000Y0072537D01*
X0009000Y0072039D02*
X0008500Y0072039D01*
X0008500Y0071540D02*
X0009000Y0071540D01*
X0009000Y0071042D02*
X0008500Y0071042D01*
X0008500Y0070543D02*
X0009000Y0070543D01*
X0009000Y0070045D02*
X0008500Y0070045D01*
X0008500Y0069546D02*
X0009000Y0069546D01*
X0009000Y0069048D02*
X0008500Y0069048D01*
X0008500Y0068549D02*
X0009000Y0068549D01*
X0009000Y0068051D02*
X0008500Y0068051D01*
X0008500Y0067552D02*
X0009000Y0067552D01*
X0009000Y0067053D02*
X0008500Y0067053D01*
X0008500Y0066555D02*
X0009000Y0066555D01*
X0009000Y0066056D02*
X0008500Y0066056D01*
X0008500Y0065558D02*
X0009000Y0065558D01*
X0003369Y0065558D02*
X0003300Y0065558D01*
X0007676Y0010223D02*
X0099824Y0010223D01*
X0099326Y0009725D02*
X0008174Y0009725D01*
X0008673Y0009226D02*
X0098827Y0009226D01*
X0098329Y0008728D02*
X0009171Y0008728D01*
X0009670Y0008229D02*
X0097830Y0008229D01*
X0097332Y0007731D02*
X0010168Y0007731D01*
X0010667Y0007232D02*
X0096833Y0007232D01*
X0096334Y0006734D02*
X0011166Y0006734D01*
X0011664Y0006235D02*
X0095836Y0006235D01*
X0095337Y0005737D02*
X0012163Y0005737D01*
X0012661Y0005238D02*
X0094839Y0005238D01*
X0094340Y0004740D02*
X0013160Y0004740D01*
X0013658Y0004241D02*
X0093842Y0004241D01*
X0093343Y0003743D02*
X0014157Y0003743D01*
X0058250Y0082250D02*
X0058750Y0082750D01*
X0072750Y0071250D02*
X0072750Y0069750D01*
X0073250Y0042250D02*
X0073250Y0041750D01*
X0072250Y0112750D02*
X0072250Y0114750D01*
X0077250Y0113750D02*
X0077250Y0112750D01*
D15*
X0077250Y0112750D03*
X0072250Y0112750D03*
X0066750Y0102250D03*
X0058750Y0082750D03*
X0072750Y0069750D03*
X0083750Y0076750D03*
X0061750Y0052250D03*
X0073250Y0042250D03*
X0037750Y0071750D03*
X0036750Y0082750D03*
X0023750Y0076750D03*
X0021250Y0105250D03*
M02*
